<svg xmlns="http://www.w3.org/2000/svg" xmlns:xlink="http://www.w3.org/1999/xlink" width="16" height="16"><defs><filter id="a" width="100%" height="100%" x="0%" y="0%"><feColorMatrix in="SourceGraphic" values="0 0 0 0 1 0 0 0 0 1 0 0 0 0 1 0 0 0 1 0"/></filter><mask id="d"><g filter="url(#a)"><path fill-opacity=".542" d="M0 0h16v16H0z"/></g></mask><clipPath id="b"><path d="M0 0h192v152H0z"/></clipPath><g id="c" fill="#c0bfbc" clip-path="url(#b)"><path d="m28 120c0 2.21-1.79 4-4 4s-4-1.79-4-4 1.79-4 4-4 4 1.79 4 4zm16 0c0 2.21-1.79 4-4 4s-4-1.79-4-4 1.79-4 4-4 4 1.79 4 4zm16 0c0 2.21-1.79 4-4 4s-4-1.79-4-4 1.79-4 4-4 4 1.79 4 4zm-32-23c0 2.21-1.79 4-4 4s-4-1.79-4-4 1.79-4 4-4 4 1.79 4 4zm16 0c0 2.21-1.79 4-4 4s-4-1.79-4-4 1.79-4 4-4 4 1.79 4 4zm16 0c0 2.21-1.79 4-4 4s-4-1.79-4-4 1.79-4 4-4 4 1.79 4 4zm16 0c0 2.21-1.79 4-4 4s-4-1.79-4-4 1.79-4 4-4 4 1.79 4 4zm16 0c0 2.21-1.79 4-4 4s-4-1.79-4-4 1.79-4 4-4 4 1.79 4 4zm16 0c0 2.21-1.79 4-4 4s-4-1.79-4-4 1.79-4 4-4 4 1.79 4 4zm-64-23c0 2.21-1.79 4-4 4s-4-1.79-4-4 1.79-4 4-4 4 1.79 4 4zm16 0c0 2.21-1.79 4-4 4s-4-1.79-4-4 1.79-4 4-4 4 1.79 4 4zm16 0c0 2.21-1.79 4-4 4s-4-1.79-4-4 1.79-4 4-4 4 1.79 4 4zm16 0c0 2.21-1.79 4-4 4s-4-1.79-4-4 1.79-4 4-4 4 1.79 4 4zm16 0c0 2.21-1.79 4-4 4s-4-1.79-4-4 1.79-4 4-4 4 1.79 4 4z"/></g></defs><use mask="url(#d)" transform="translate(-160 -24)" xlink:href="#c"/><path fill="#241f31" d="M4 10h2v2H4zm6 0h2v2h-2zm-3 0h2v2H7zm3-3h2v2h-2zM7 7h2v2H7zM3.715 1A2.73 2.73 0 0 0 1 3.715v8.57A2.73 2.73 0 0 0 3.715 15h8.57A2.73 2.73 0 0 0 15 12.285v-8.57A2.73 2.73 0 0 0 12.285 1zM3 6h10v6.285c0 .414-.3.715-.715.715h-8.57A.692.692 0 0 1 3 12.285zm0 0"/></svg>