<svg xmlns="http://www.w3.org/2000/svg" viewBox="0 0 16 16"><path fill="gray" fill-opacity=".01" d="M0 0h16v16H0z" color="#000"/><path fill="#232323" d="M442.82 257.02a1 1 0 0 0-.805 1.162l2.15 11.822h9.669l2.15-11.822a1 1 0 0 0-.805-1.162 1 1 0 0 0-1.164.805l-1.85 10.18h-6.331l-1.85-10.18a1 1 0 0 0-1.164-.805z" color="#000" transform="translate(-441 -255.01)" style="-inkscape-stroke:none"/><path fill="#232323" d="M4 4h2v2H4z"/><path fill="#232323" d="M7 4h4v3H7z"/><path fill="#232323" d="M5 8h6v3H5z"/></svg>